<svg height="291" width="291" xmlns="http://www.w3.org/2000/svg"><g fill-rule="evenodd" fill="#8f88fe"><path d="M228.03 133.47c-.74.148-1.48 1.779-1.48 2.668-.149 5.927-.297 21.636-.297 32.305 0 .296.443.888.888.888 2.223.149 7.558.297 12.151.297 6.372 0 10.077-.889 12.152-1.777 5.334-2.668 7.853-8.448 7.853-14.82 0-14.373-10.077-19.857-25.044-19.857-1.037-.147-4-.147-6.224.296zm38.233 66.24c0-14.67-10.819-22.821-30.379-22.821-.889 0-7.112-.148-8.595.148-.445.149-1.037.445-1.037.89 0 10.52-.148 27.266.297 33.785.295 2.816 2.37 6.818 4.89 8.003 2.666 1.482 8.743 1.778 12.891 1.778 11.707 0 21.932-6.52 21.932-21.783zm-68.462-74.389c1.48 0 5.927.444 17.338.444 10.817 0 19.412-.296 29.934-.296 12.891 0 30.674 4.594 30.674 23.857 0 9.485-6.669 17.042-15.412 20.747-.444.149-.444.444 0 .592 12.448 3.113 23.415 10.82 23.415 25.34 0 14.226-8.891 23.265-21.784 28.897-7.854 3.408-17.634 4.594-27.563 4.594-7.558 0-27.858-.89-39.12-.592-1.185-.445 1.037-5.78 2.074-6.67 2.668-.147 4.742-.296 7.558-1.185 4.001-1.037 4.445-2.222 5.038-8.298.297-5.186.297-23.563.297-36.603 0-17.93.148-30.082 0-36.009-.148-4.593-1.779-6.075-5.039-6.965-2.519-.444-6.668-1.037-10.077-1.481-.741-.742 1.778-5.78 2.668-6.372zm-85.504 92.172c3.558 2.814 10.522 4 16.746 4 8.003 0 16.004-1.48 23.71-8.446 7.854-7.113 13.336-18.078 13.336-35.564 0-16.746-6.372-30.38-19.412-38.38-7.41-4.595-16.894-6.52-27.86-6.52-3.26 0-6.372.147-8.298 1.036-.445.297-1.482 1.63-1.482 2.371-.297 2.964-.297 25.784-.297 39.122 0 13.781 0 33.045.297 35.267 0 2.224 1.037 5.632 3.26 7.114zm-33.638-92.172c2.816 0 13.633.444 18.82.444 9.336 0 16.004-.444 33.638-.444 14.818 0 27.266 4.001 36.158 11.558 10.817 9.336 16.449 22.229 16.449 37.936 0 22.376-10.225 35.269-20.45 42.678-10.224 7.558-23.562 12.003-42.528 12.003-10.077 0-27.414-.297-41.789-.445h-.148c-.74-1.332 1.185-6.52 2.37-6.668 3.854-.445 4.89-.593 6.818-1.333 3.11-1.186 3.704-2.816 4.15-8.298.443-10.225.295-22.524.295-36.454 0-9.929.148-29.342-.149-35.565-.443-5.186-2.666-6.52-7.112-7.41-2.223-.443-5.187-1.037-9.335-1.48-.594-1.039 2.074-5.632 2.814-6.52zM189.01 89.209c-2.302-.277-3.96-.644-5.986-1.565-.275-.185-.736-1.105-.736-1.473-.185-3.223-.185-12.432-.185-18.6 0-4.973-.828-9.3-2.946-12.338-2.486-3.5-6.077-5.525-10.681-5.525-4.052 0-9.484 2.763-13.996 6.63-.092.091-.829.736-.737-.277 0-1.013.185-3.038.277-4.42.092-1.289-.644-1.933-.644-1.933-2.948 1.473-11.234 3.407-14.272 3.683-2.21.46-2.762 2.578-.46 3.315h.092c2.485.736 4.143 1.565 5.431 2.394.921.736.83 1.75.83 2.578.091 6.906.091 17.494-.184 23.296-.092 2.302-.737 3.13-2.394 3.499l.183-.093c-1.289.277-2.302.553-3.867.737-.552.552-.552 3.5 0 4.144 1.013 0 6.353-.277 10.774-.277 6.077 0 9.208.277 10.773.277.644-.737.829-3.5.46-4.144-1.75-.092-3.039-.276-4.235-.644-1.658-.369-2.119-1.197-2.21-3.131-.184-4.88-.184-15.193-.184-22.19 0-1.934.552-2.855 1.104-3.407 2.118-1.841 5.525-3.13 8.563-3.13 2.947 0 4.88.92 6.354 2.117 2.025 1.657 2.67 4.051 2.946 5.801.46 3.96.277 11.786.277 18.6 0 3.683-.277 4.604-1.658 5.064-.644.276-2.302.645-4.236.829-.644.644-.46 3.499 0 4.143 2.67 0 5.802-.276 10.405-.276 5.709 0 9.392.276 10.865.276.46-.552.645-3.222.276-3.959zm25.506-35.173c-4.88 0-7.919 3.775-7.919 9.668 0 5.984 2.67 12.89 10.221 12.89 1.289 0 3.683-.552 4.787-1.84 1.75-1.658 2.948-4.973 2.948-8.471 0-7.643-3.776-12.246-10.036-12.246zm-.645 40.698c-1.841 0-3.131.552-3.959 1.013-3.868 2.486-5.617 4.88-5.617 7.735 0 2.67 1.012 4.787 3.223 6.629 2.67 2.302 6.353 3.407 11.049 3.407 9.392 0 13.536-5.065 13.536-10.036 0-3.5-1.75-5.801-5.34-7.09-2.579-1.105-7.275-1.658-12.891-1.658zm.645 23.94c-5.617 0-9.669-1.198-13.167-3.867-3.407-2.579-4.88-6.446-4.88-9.116 0-.736.184-2.763 1.841-4.604 1.013-1.105 3.222-3.223 8.472-6.813.183-.092.275-.185.275-.369s-.184-.369-.368-.46c-4.328-1.657-5.617-4.328-5.985-5.801v-.185c-.092-.552-.276-1.104.553-1.657.644-.46 1.565-1.012 2.577-1.657 1.566-.92 3.223-1.934 4.236-2.763.185-.184.185-.367.185-.552 0-.184-.185-.369-.369-.46-6.445-2.118-9.667-6.906-9.667-14.088 0-4.696 2.117-8.932 5.892-11.602 2.579-2.026 9.024-4.512 13.26-4.512h.276c4.327.092 6.721 1.013 10.128 2.21 1.842.645 3.591.92 5.986.92 3.59 0 5.156-1.104 6.444-2.393.093.183.277.644.37 1.841.091 1.198-.277 2.946-1.198 4.236-.737 1.012-2.394 1.75-4.051 1.75h-.461c-1.658-.185-2.394-.369-2.394-.369l-.368.184c-.092.185 0 .368.092.645l.092.184c.184.829.553 3.314.553 3.96 0 7.55-3.039 10.864-6.262 13.35-3.13 2.302-6.721 3.776-10.773 4.144-.092 0-.46 0-1.289.093-.46 0-1.105.092-1.197.092h-.092c-.737.183-2.578 1.104-2.578 2.67 0 1.38.83 3.038 4.788 3.314.828.093 1.657.093 2.578.185 5.248.368 11.786.829 14.825 1.84 4.235 1.566 6.906 5.341 6.906 9.854 0 6.813-4.88 13.167-12.983 17.126-3.96 1.75-7.919 2.67-12.246 2.67zM267 54.496c-1.934 0-3.684.46-4.973 1.381-3.59 2.21-5.432 6.63-5.432 13.075 0 12.063 6.077 20.534 14.732 20.534 2.578 0 4.604-.737 6.353-2.21 2.67-2.21 4.052-6.63 4.052-12.799 0-11.97-5.986-19.98-14.732-19.98zm1.657 39.409c-15.652 0-21.27-11.51-21.27-22.283 0-7.55 3.039-13.351 9.116-17.495 4.328-2.67 9.484-4.143 14.088-4.143 11.97 0 20.349 8.563 20.349 20.902 0 8.379-3.315 15.008-9.669 19.06-3.038 2.026-8.286 3.96-12.615 3.96zm-164.08-39.409c-1.934 0-3.682.46-4.972 1.381-3.59 2.21-5.433 6.63-5.433 13.075 0 12.063 6.077 20.534 14.733 20.534 2.579 0 4.604-.737 6.354-2.21 2.67-2.21 4.052-6.63 4.052-12.799 0-11.97-5.894-19.98-14.732-19.98zm1.658 39.409c-15.653 0-21.27-11.51-21.27-22.283 0-7.55 3.039-13.351 9.116-17.495 4.328-2.67 9.484-4.143 14.088-4.143 11.97 0 20.349 8.563 20.349 20.902 0 8.379-3.315 15.008-9.67 19.06-2.945 2.026-8.194 3.96-12.613 3.96zM.995 92.984c-.184-.276-.369-1.104-.277-2.118 0-.736.185-1.197.277-1.38 1.933-.277 2.946-.554 4.05-.83 1.843-.46 2.58-1.473 2.671-3.774.277-5.525.277-16.022.185-23.296V61.4c0-.829 0-1.842-1.013-2.578-1.474-.92-3.223-1.75-5.525-2.394-.829-.276-1.381-.737-1.289-1.29 0-.551.552-1.196 1.75-1.38 3.038-.277 10.957-2.21 14.087-3.59.184.183.46.736.46 1.472l-.091 1.013c-.093 1.013-.185 2.21-.185 3.407 0 .368.369.644.737.644.184 0 .368-.092.553-.184 5.892-4.604 11.233-6.262 13.995-6.262 4.512 0 8.01 2.119 10.682 6.538.183.277.368.368.644.368.185 0 .46-.091.552-.275 5.433-4.144 10.865-6.63 14.456-6.63 8.564 0 13.628 6.353 13.628 17.126 0 3.039 0 6.998-.092 10.59 0 3.222-.092 6.17-.092 8.287 0 .46.645 1.933 1.658 2.21 1.289.644 3.038.92 5.34 1.289h.092c.185.644-.184 3.038-.552 3.5-.553 0-1.382 0-2.302-.093-1.75-.092-4.236-.184-6.998-.184-5.709 0-8.655.092-11.51.276-.183-.736-.275-2.946 0-3.5 1.658-.275 2.487-.552 3.5-.828 1.842-.552 2.302-1.381 2.394-3.775 0-1.749.368-16.666-.185-20.257-.552-3.683-3.315-8.01-9.392-8.01-2.302 0-5.892.92-9.392 3.59-.183.185-.368.645-.368.921v.092c.368 1.934.368 4.144.368 7.55v5.985c0 4.144-.092 8.012 0 10.957 0 2.027 1.198 2.487 2.21 2.855.553.092.921.184 1.382.276.829.184 1.657.369 2.946.645.185.368.185 1.565-.092 2.578-.092.552-.277.829-.368.921-3.13-.092-6.353-.184-11.05-.184-1.38 0-3.775.092-5.801.092-1.658 0-3.223.092-4.143.092-.092-.184-.277-.829-.277-1.842 0-.829.185-1.473.37-1.657.46-.093.827-.184 1.288-.184a88.36 88.36 0 002.946-.553c1.566-.46 2.118-1.289 2.21-3.314.276-4.604.552-17.771-.092-21.086-1.105-5.34-4.143-8.011-9.024-8.011-2.854 0-6.445 1.38-9.392 3.591-.46.368-.828 1.29-.828 2.118v5.432c0 6.63 0 14.917.092 18.508.092 1.105.46 2.395 2.578 2.855.46.092 1.197.276 2.118.368l1.657.276c.185.553.093 2.763-.276 3.5-.921 0-2.026-.093-3.315-.093-1.933-.092-4.42-.184-7.182-.184-3.222 0-5.524.092-7.366.184-1.29-.184-2.302-.184-3.407-.184zm35.132 148.311l-3.783-1.292s.462-19.287-6.46-20.671c-4.613-5.353.74-227.01 17.349-.739 0 0-5.721 2.86-6.736 7.752-1.108 4.799-.37 14.95-.37 14.95z"/><path d="M36.127 241.295l-3.783-1.292s.462-19.287-6.46-20.671c-4.613-5.353.74-227.01 17.349-.739 0 0-5.721 2.86-6.736 7.752-1.108 4.799-.37 14.95-.37 14.95z"/><path d="M38.158 222.655s33.13-21.779 25.377-67.089c-7.474-32.944-25.1-43.741-27.038-47.894-2.122-2.953-4.153-8.12-4.153-8.12l1.385 91.635c0 .092-2.861 28.054 4.43 31.469"/><path d="M38.158 222.655s33.13-21.779 25.377-67.089c-7.474-32.944-25.1-43.741-27.038-47.894-2.122-2.953-4.153-8.12-4.153-8.12l1.385 91.635c0 .092-2.861 28.054 4.43 31.469"/><path d="M30.407 223.855S-.692 202.63 1.154 165.256c1.753-37.374 23.716-55.738 27.961-59.06 2.77-2.953 2.862-4.06 3.046-7.013 1.938 4.152 1.57 62.105 1.846 68.933.83 26.3-1.477 50.755-3.6 55.738z"/><path d="M30.407 223.855S-.692 202.63 1.154 165.256c1.753-37.374 23.716-55.738 27.961-59.06 2.77-2.953 2.862-4.06 3.046-7.013 1.938 4.152 1.57 62.105 1.846 68.933.83 26.3-1.477 50.755-3.6 55.738z"/></g></svg>